<?xml version="1.0" encoding="UTF-8" standalone="no"?>
<!-- Created with sK1/UniConvertor (http://sk1project.org/) -->

<svg
   xmlns:dc="http://purl.org/dc/elements/1.1/"
   xmlns:cc="http://creativecommons.org/ns#"
   xmlns:rdf="http://www.w3.org/1999/02/22-rdf-syntax-ns#"
   xmlns:svg="http://www.w3.org/2000/svg"
   xmlns="http://www.w3.org/2000/svg"
   xmlns:sodipodi="http://sodipodi.sourceforge.net/DTD/sodipodi-0.dtd"
   xmlns:inkscape="http://www.inkscape.org/namespaces/inkscape"
   width="510"
   height="195"
   viewBox="0 0 408.00002 155.99999"
   id="svg4904"
   version="1.1"
   inkscape:version="0.48.4 r9939"
   sodipodi:docname="NEW LOGO.svg"
   style="fill-rule:evenodd">
  <metadata
     id="metadata4916">
    <rdf:RDF>
      <cc:Work
         rdf:about="">
        <dc:format>image/svg+xml</dc:format>
        <dc:type
           rdf:resource="http://purl.org/dc/dcmitype/StillImage" />
        <dc:title></dc:title>
      </cc:Work>
    </rdf:RDF>
  </metadata>
  <defs
     id="defs4914" />
  <sodipodi:namedview
     pagecolor="#ffffff"
     bordercolor="#666666"
     borderopacity="1"
     objecttolerance="10"
     gridtolerance="10"
     guidetolerance="10"
     inkscape:pageopacity="0"
     inkscape:pageshadow="2"
     inkscape:window-width="1918"
     inkscape:window-height="1150"
     id="namedview4912"
     showgrid="false"
     inkscape:zoom="0.63429547"
     inkscape:cx="566.05569"
     inkscape:cy="-23.384788"
     inkscape:window-x="0"
     inkscape:window-y="0"
     inkscape:window-maximized="1"
     inkscape:current-layer="g4906" />
  <g
     id="g4906"
     transform="matrix(0.56779657,0,0,0.55054456,52.860787,-401.55333)">
    <path
       style="fill:#00b3df;stroke:none"
       d="m 288.06658,826.15392 1.531,0.057 1.53,0.057 1.53099,0.113 1.531,0.227 1.47401,0.226 1.47399,0.227 1.417,0.34 1.47401,0.397 1.361,0.397 1.417,0.454 1.361,0.51 1.36,0.567 1.36099,0.567 1.30401,0.68 1.24699,0.68 1.304,0.681 -0.96399,0.51 -1.07701,0.51 -1.07699,0.567 -1.13401,0.624 -1.24699,0.68 -1.247,0.68 -1.36099,0.794 -1.36101,0.794 -1.417,0.85 -1.474,0.907 -1.531,0.964 -1.53001,1.02 -1.58799,1.078 -1.644,1.077 -1.64399,1.19 -1.70101,1.191 -1.87101,-1.077 -1.927,-1.021 -1.814,-1.02 -1.81399,-0.964 -1.815,-0.85 -1.75701,-0.907 -1.70099,-0.794 -1.64399,-0.737 -1.58701,-0.737 -1.58801,-0.68 -1.52999,-0.624 -1.418,-0.624 -1.41701,-0.51 -1.304,-0.51 -1.30399,-0.51 -1.191,-0.397 1.36099,-0.907 1.41701,-0.794 1.418,-0.794 1.417,-0.737 1.531,-0.68 1.474,-0.624 1.53,-0.567 1.58799,-0.51 1.58701,-0.453 1.588,-0.454 1.644,-0.34 1.644,-0.284 1.701,-0.226 1.7,-0.114 1.70099,-0.11299 1.70101,-0.057 z m 0,0 0,0 z m 172.57299,45.128 0,0 0,1.474 0.11399,1.417 0.17,1.417 0.28301,1.361 0.284,1.361 0.39699,1.30401 0.453,1.30399 0.51,1.303 0.511,1.248 0.623,1.19001 0.68001,1.19099 0.73699,1.13401 0.794,1.07699 0.79401,1.077 0.907,1.02 0.907,0.964 0.96399,0.907 1.02,0.907 1.07701,0.794 1.07799,0.794 1.133,0.737 1.191,0.68 1.191,0.62401 1.247,0.56698 1.304,0.51002 1.30401,0.45299 1.304,0.341 1.35999,0.34 1.361,0.227 1.417,0.17 1.418,0.11305 1.417,0.057 1.474,-0.057 1.41701,-0.11305 1.36099,-0.17 1.417,-0.227 1.36101,-0.34 1.30399,-0.341 1.304,-0.45299 1.24701,-0.51002 1.247,-0.56698 1.191,-0.62401 1.18999,-0.68 1.134,-0.737 1.077,-0.794 1.07701,-0.794 1.021,-0.907 0.96399,-0.907 0.96301,-0.964 0.85099,-1.02 0.85,-1.077 0.73701,-1.07699 0.73699,-1.13401 0.68101,-1.19099 0.623,-1.19001 0.56699,-1.248 0.51,-1.303 0.45401,-1.30399 0.33999,-1.30401 0.34001,-1.361 0.227,-1.361 0.16999,-1.417 0.113,-1.417 0.0571,-1.474 0,0 0,-111.9121 -0.0571,-1.4173 -0.113,-1.4173 -0.16999,-1.3607 -0.227,-1.3606 -0.283,-1.304 -0.34001,-1.3039 -0.454,-1.2472 -0.453,-1.2473 -0.567,-1.2472 -0.567,-1.1906 -0.624,-1.1338 -0.737,-1.1339 -0.73699,-1.0772 -0.794,-1.0204 -0.85001,-1.0205 -0.85,-0.9638 -0.681,2.041 -0.67999,1.9842 -0.79401,1.9843 -0.85,1.9275 -0.90699,1.8709 -1.021,1.8708 -1.02001,1.8143 -1.134,1.7574 -1.134,1.7575 -1.24699,1.7008 -1.247,1.6441 -1.36101,1.5874 -1.36099,1.5307 -1.47401,1.5307 -1.47399,1.474 -1.53,1.3607 -1.58801,1.3606 -1.644,1.3039 -1.701,1.2473 -1.7,1.1338 -1.758,1.1339 -1.814,1.0771 -1.87099,0.9638 -1.87101,0.9638 -1.927,0.8504 -1.928,0.7937 -2.041,0.737 -1.98399,0.6803 -2.041,0.5669 -2.09801,0.567 -2.15399,0.4535 -2.09801,0.3402 0,89.3483 z m 0,0 0,0 z m -107.20599,-125.1783 0.964,-1.5874 1.02,-1.5307 1.13399,-1.474 1.24701,-1.4173 1.30399,-1.3039 1.418,-1.1906 1.47401,-1.1338 1.53,-1.0205 1.644,-0.9071 1.701,-0.7937 1.75799,-0.737 1.75701,-0.5669 1.871,-0.4536 1.928,-0.3401 1.927,-0.2268 1.98399,-0.0567 1.47401,0.0567 1.418,0.1134 1.35999,0.1701 1.418,0.2267 1.36001,0.3402 1.304,0.3401 1.30399,0.4536 1.24701,0.5102 1.248,0.567 1.19,0.6236 1.19099,0.6803 1.13401,0.6803 1.077,0.7937 1.077,0.8504 1.02,0.8504 0.96399,0.9638 0.96401,0.9637 0.85,1.0205 0.85099,1.0205 0.73701,1.1338 0.737,1.1339 0.68,1.1339 0.624,1.2472 0.56699,1.1905 0.51,1.304 0.45301,1.3039 0.34099,1.304 0.34001,1.3606 0.227,1.3607 0.17,1.4173 0.113,1.4173 0.0571,1.474 0,0 0,51.0236 -1.077,-2.4378 -1.13401,-2.3811 -1.19099,-2.3811 -1.19,-2.3811 -1.248,-2.3244 -1.24701,-2.3244 -1.36099,-2.2677 -1.36,-2.2678 -1.36101,-2.2109 -1.417,-2.2111 -1.47399,-2.1543 -1.531,-2.1544 -1.531,-2.1543 -1.587,-2.0976 -1.58701,-2.041 -1.64399,-2.0409 -1.70101,-2.0409 -1.70099,-1.9843 -1.75801,-1.9276 -1.81399,-1.9275 -1.814,-1.9276 -1.814,-1.8141 -1.87101,-1.8709 -1.927,-1.7575 -1.928,-1.8141 -1.98399,-1.7008 -1.98501,-1.7009 -2.03999,-1.6441 -2.041,-1.6441 -2.09799,-1.5874 -2.09801,-1.5874 -2.154,-1.5307 z m 0,0 0,0 z m -87.307,-14.7401 3.628,0.0567 3.572,0.1134 3.572,0.2268 3.57099,0.3401 3.51501,0.3969 3.458,0.5102 3.459,0.5669 3.458,0.6236 3.40199,0.7371 3.344,0.8503 3.345,0.9071 3.28801,0.9638 3.289,1.0772 3.231,1.1338 3.175,1.1906 3.17499,1.3039 3.11801,1.3606 3.118,1.4741 3.00499,1.474 3.00401,1.5874 2.948,1.6441 2.89201,1.7574 2.89099,1.7576 2.77799,1.8708 2.77801,1.9276 2.72099,1.9842 2.66501,2.041 2.664,2.0976 2.552,2.1543 2.494,2.2111 2.438,2.3244 2.438,2.3244 2.324,2.3811 2.32499,2.4945 2.21101,2.4944 2.15399,2.5512 2.09801,2.6646 2.04,2.6645 1.985,2.7214 1.927,2.7212 1.871,2.8347 1.75799,2.8913 1.75701,2.8913 1.644,2.948 1.58799,3.0048 1.47401,3.0047 1.474,3.1181 1.36,3.1181 1.304,3.1185 1.19099,3.231 1.13401,3.232 1.07699,3.231 0.96401,3.345 0.907,3.288 0.85,3.402 0.73699,3.401 0.624,3.402 0.56701,3.458 0.51,3.515 0.397,3.515 0.33999,3.515 0.22701,3.572 0.113,3.628 0.0571,3.572 -0.0571,3.118 0.0571,0.057 0,0 0,2.097 0.11299,2.04099 0.113,2.04101 0.17101,2.09799 0.22599,1.984 0.28401,2.04101 0.33999,1.984 0.397,1.984 0.397,1.985 0.51,1.92699 0.51,1.92801 0.56701,1.927 0.624,1.871 0.623,1.87099 0.73699,1.87101 0.73701,1.814 0.794,1.814 0.79399,1.758 0.907,1.75699 0.90701,1.70101 0.964,1.75699 0.963,1.64501 1.02099,1.644 1.07701,1.644 1.134,1.587 1.134,1.588 1.19,1.53 1.191,1.53099 1.30399,1.47401 1.24701,1.474 1.361,1.417 1.36,1.36099 1.361,1.36101 1.417,1.304 1.47399,1.303 1.47401,1.24799 1.47399,1.24701 1.58801,1.13399 1.53,1.19001 1.64499,1.078 1.58701,1.077 1.644,1.01999 1.701,1.021 1.701,0.963 1.757,0.90801 1.758,0.84999 1.757,0.85001 1.81399,0.79399 1.814,0.737 1.87101,0.68 1.871,0.68101 1.87099,0.62299 1.928,0.56701 1.927,0.50999 1.928,0.45401 1.98401,0.454 1.984,0.33999 1.984,0.34 2.041,0.28301 1.985,0.227 2.041,0.22699 2.09699,0.11305 2.04101,0.057 2.098,0.057 2.097,-0.057 2.09799,-0.057 2.04101,-0.11305 2.041,-0.22699 2.041,-0.227 1.98399,-0.28301 2.041,-0.34 1.98401,-0.33999 1.928,-0.454 1.98399,-0.45401 1.928,-0.50999 1.87101,-0.56701 1.927,-0.62299 1.87099,-0.68101 1.81401,-0.68 1.814,-0.737 1.815,-0.79399 1.757,-0.85001 1.75699,-0.84999 1.75801,-0.90801 1.70099,-0.963 1.701,-1.021 1.644,-1.01999 1.64401,-1.077 1.58699,-1.078 1.531,-1.19001 1.58701,-1.13399 1.47399,-1.24701 1.47401,-1.24799 1.47399,-1.303 1.418,-1.304 1.417,-1.36101 1.304,-1.36099 1.36001,-1.417 1.248,-1.474 1.304,-1.47401 1.18999,-1.53099 1.191,-1.53 1.134,-1.588 1.13301,-1.587 1.078,-1.644 1.01999,-1.644 0.96401,-1.64501 0.964,-1.75699 0.907,-1.70101 0.907,-1.75699 0.794,-1.758 0.793,-1.814 0.737,-1.814 0.737,-1.87101 0.62399,-1.87099 0.624,-1.871 0.56601,-1.927 0.511,-1.92801 0.51,-1.92699 0.397,-1.985 0.397,-1.984 0.33999,-1.984 0.28301,-2.04101 0.22699,-1.984 0.17001,-2.09799 0.11398,-2.04101 0.113,-2.04099 0,-2.097 0,0 0,-110.4383 0,-4.6488 0,0 0.0571,-1.474 0.113,-1.4173 0.16999,-1.4173 0.22701,-1.3607 0.34,-1.3606 0.33999,-1.304 0.45401,-1.3039 0.51,-1.304 0.56699,-1.1905 0.62301,-1.2472 0.68099,-1.1339 0.73702,-1.1339 0.73699,-1.1338 0.85,-1.0205 0.85101,-1.0205 0.96299,-0.9637 0.96401,-0.9638 1.02099,-0.8504 1.077,-0.8504 1.077,-0.7937 1.134,-0.6803 1.19,-0.6803 1.19099,-0.6236 1.24701,-0.567 1.247,-0.5102 1.304,-0.4536 1.304,-0.3401 1.361,-0.3402 1.417,-0.2267 1.36099,-0.1701 1.417,-0.1134 1.4739,-0.0567 1.417,0.0567 1.418,0.1134 1.417,0.1701 1.36099,0.2267 1.36001,0.3402 1.361,0.3401 1.304,0.4536 1.247,0.5102 1.24699,0.567 1.19101,0.6236 1.191,0.6803 1.133,0.6803 1.078,0.7937 1.07699,0.8504 1.02,0.8504 0.96401,0.9638 0.907,0.9637 0.907,1.0205 0.851,1.0205 0.73699,1.1338 0.737,1.1339 0.68,1.1339 0.624,1.2472 0.56601,1.1905 0.511,1.304 0.45299,1.3039 0.34001,1.304 0.341,1.3606 0.22599,1.3607 0.17001,1.4173 0.11398,1.4173 0.0559,1.474 0,0 0,115.0871 0,0 -0.0559,3.514 -0.11398,3.515 -0.226,3.459 -0.34101,3.51501 -0.396,3.40099 -0.45399,3.402 -0.56701,3.401 -0.623,3.34501 -0.73699,3.34499 -0.79401,3.288 -0.907,3.232 -0.96399,3.231 -1.021,3.232 -1.133,3.175 -1.191,3.118 -1.247,3.061 -1.304,3.062 -1.417,3.00401 -1.47401,3.00499 -1.58799,2.891 -1.587,2.89201 -1.70101,2.83399 -1.70099,2.835 -1.814,2.721 -1.928,2.722 -1.927,2.664 -1.98401,2.608 -2.04099,2.551 -2.155,2.495 -2.154,2.494 -2.26801,2.381 -2.26699,2.325 -2.382,2.324 -2.381,2.211 -2.437,2.21101 -2.552,2.09799 -2.551,2.09699 -2.60801,1.98501 -2.66399,1.92701 -2.665,1.87099 -2.77801,1.814 -2.77799,1.75799 -2.834,1.70001 -2.892,1.588 -2.948,1.531 -2.948,1.47401 -3.004,1.41699 -3.062,1.36098 -3.11801,1.247 -3.118,1.19 -3.175,1.077 -3.17499,1.078 -3.231,0.963 -3.288,0.851 -3.28901,0.794 -3.28799,0.737 -3.401,0.68 -3.345,0.51 -3.402,0.51 -3.458,0.397 -3.458,0.284 -3.51501,0.226 -3.459,0.1141 -3.571,0.057 -4.19599,-0.057 -4.138,-0.17 -4.13901,-0.34 -4.082,-0.397 -4.08099,-0.567 -3.969,-0.68 -4.02501,-0.794 -3.91199,-0.851 -3.91201,-1.02 -3.79799,-1.134 -3.79901,-1.247 -3.74099,-1.304 -3.742,-1.474 -3.628,-1.53101 -3.572,-1.644 -3.572,-1.75699 -3.458,-1.81501 -3.40201,-1.92699 -3.344,-2.041 -3.28899,-2.154 -3.231,-2.21101 -3.175,-2.26799 -3.061,-2.43801 -3.005,-2.43799 -2.948,-2.551 -2.891,-2.664 -2.77801,-2.722 -2.722,-2.77801 -2.60799,-2.891 -2.551,-2.948 -2.494,-3.005 -2.381,-3.118 -2.438,3.118 -2.495,3.005 -2.60701,2.948 -2.72199,2.891 -2.77801,2.77801 -2.834,2.722 -2.89199,2.664 -3.00401,2.551 -3.06199,2.495 -3.11801,2.381 -3.23099,2.324 -3.28901,2.211 -3.28799,2.098 -3.40101,2.041 -3.459,1.92699 -3.57099,1.87101 -3.572,1.70099 -3.62801,1.644 -3.68499,1.58801 -3.742,1.417 -3.798,1.304 -3.79901,1.247 -3.91199,1.134 -3.91201,1.02 -4.02499,0.851 -4.025,0.794 -4.02501,0.68 -4.082,0.567 -4.13898,0.397 -4.19501,0.34 -4.195,0.17 -4.252,0.057 0,0 0,0 -100.63,0 1.928,-1.191 1.87,-1.247 1.871,-1.248 1.87099,-1.303 1.75801,-1.361 1.757,-1.417 1.75799,-1.418 1.70001,-1.474 1.64399,-1.53001 1.64502,-1.588 1.58699,-1.587 1.531,-1.588 1.52999,-1.7 1.47401,-1.64501 1.47399,-1.75699 1.36101,-1.758 1.361,-1.814 1.36001,-1.814 1.24799,-1.87101 1.247,-1.87099 1.19,-1.92701 1.134,-1.92799 1.134,-1.984 1.077,-1.984 1.021,-2.04101 0.963,-2.04099 0.908,-2.09801 0.907,-2.09699 0.793,-2.155 0.794,-2.154 0.737,-2.154 0.68,-2.211 57.317,0 0,0 2.154,-0.057 2.15499,-0.057 2.09701,-0.17 2.15499,-0.17 2.09701,-0.22701 2.041,-0.283 2.098,-0.34 2.041,-0.397 1.98399,-0.454 2.041,-0.453 1.98401,-0.56699 1.98401,-0.567 1.92798,-0.62401 1.928,-0.68 1.927,-0.67999 1.87101,-0.79401 1.87099,-0.79399 1.81401,-0.85001 1.814,-0.907 1.814,-0.907 1.758,-1.021 1.701,-1.01999 1.7,-1.02101 1.70099,-1.13399 1.64401,-1.133 1.644,-1.13401 1.58799,-1.248 1.58701,-1.247 1.531,-1.247 1.474,-1.36099 1.474,-1.304 1.474,-1.417 1.361,-1.41701 1.35999,-1.47399 1.36101,-1.474 1.304,-1.53101 1.247,-1.53099 1.24699,-1.587 1.19101,-1.58801 1.134,-1.64399 1.13299,-1.7 1.07801,-1.70101 1.02,-1.70099 1.021,-1.75701 0.96301,-1.758 0.90698,-1.814 0.85101,-1.814 0.85,-1.87099 0.794,-1.87101 0.73699,-1.87099 0.68001,-1.92701 0.624,-1.92799 0.624,-1.984 0.566,-1.98501 0.511,-1.984 0.45299,-1.98399 0.39701,-2.04101 0.397,-2.09799 0.283,-2.04101 0.284,-2.09699 0.227,-2.09801 0.113,-2.097 0.113,-2.155 0.0571,-2.154 0,-2.041 -0.0571,-2.154 -0.113,-2.098 -0.113,-2.098 -0.227,-2.097 -0.22701,-2.041 -0.33999,-2.041 -0.34,-1.984 -0.397,-2.041 -0.45401,-1.985 -0.51,-1.984 -0.51,-1.927 -0.56699,-1.928 -0.68,-1.928 -0.624,-1.87 -0.737,-1.871 -0.794,-1.871 -0.793,-1.814 -0.851,-1.815 -0.85001,-1.757 -0.96399,-1.757 -0.96401,-1.758 -1.02,-1.701 -1.02099,-1.701 -1.077,-1.644 -1.13401,-1.587 -1.134,-1.644 -1.18999,-1.531 -1.24701,-1.5306 -1.304,-1.5307 -1.24799,-1.474 -1.36,-1.474 -1.36101,-1.4173 -1.417,-1.3606 -1.417,-1.3607 -1.47399,-1.3039 -1.47401,-1.3039 -1.531,-1.2473 -1.58799,-1.1905 -1.53,-1.1906 -1.64401,-1.1338 -1.644,-1.1339 -1.64499,-1.0205 -1.70001,-1.0204 -1.70099,-1.0205 -1.75801,-0.9638 -1.75699,-0.9071 -1.814,-0.8504 -1.81401,-0.8504 -1.815,-0.737 -1.87099,-0.737 -1.87,-0.737 -1.928,-0.6237 -1.927,-0.6235 -1.928,-0.567 -1.984,-0.5102 -1.985,-0.4535 -1.984,-0.4536 -1.98401,-0.3969 -2.041,-0.2834 -2.041,-0.2835 -2.09799,-0.2268 -2.041,-0.2267 -2.097,-0.1134 -2.098,-0.0567 -2.154,-0.0567 0,0 -111.969,0 0,0 -68.371002,0 0,0 -1.47399,0 -1.418004,-0.1134 -1.417,-0.1701 -1.361,-0.2834 -1.36001,-0.2835 -1.304,-0.3969 -1.30399,-0.4535 -1.304,-0.5102 -1.191,-0.5103 -1.247,-0.6236 -1.134,-0.6803 -1.19,-0.737 -1.07701,-0.7937 -1.07799,-0.7937 -0.96301,-0.9071 -1.02099,-0.9071 -0.90701,-0.9638 -0.84999,-1.0204 -0.85101,-1.0772 -0.79299,-1.0772 -0.73701,-1.1338 -0.68099,-1.1906 -0.62301,-1.1905 -0.511,-1.2473 -0.51,-1.3039 -0.45299,-1.3039 -0.397,-1.304 -0.28401,-1.3606 -0.283,-1.3606 -0.16999,-1.4173 -0.11399,-1.4174 0,-1.4173 0,-1.474 0.11399,-1.4173 0.16999,-1.4173 0.283,-1.3607 0.28401,-1.3606 0.397,-1.304 0.45299,-1.3039 0.51,-1.304 0.511,-1.1905 0.62301,-1.2472 0.68099,-1.1339 0.73701,-1.1339 0.79299,-1.1338 0.85101,-1.0205 0.84999,-1.0205 0.90701,-0.9637 1.02099,-0.9638 0.96301,-0.8504 1.07799,-0.8504 1.07701,-0.7937 1.19,-0.6803 1.134,-0.6803 1.247,-0.6236 1.191,-0.567 1.304,-0.5102 1.30399,-0.4536 1.304,-0.3401 1.36001,-0.3402 1.361,-0.2267 1.417,-0.1701 1.418004,-0.1134 1.47399,-0.0568 0,0 180.340002,0 z m 0,0 0,0 z m -273.9399982,167.9814 -2.155,-0.057 -2.1539998,-0.057 -2.098,-0.16999 -2.154,-0.17 -2.098,-0.28301 -2.097,-0.284 -2.041,-0.33999 -2.041,-0.39701 -2.041,-0.453 -2.041,-0.511 -1.984,-0.56699 -1.984,-0.566 -1.928,-0.62401 -1.928,-0.737 -1.927,-0.737 -1.871,-0.737 -1.871,-0.85 -1.871,-0.85099 -1.814,-0.907 -1.756999,-0.96401 -1.815,-0.96399 -1.7,-1.077 -1.701,-1.077 -1.701,-1.07701 -1.644,-1.191 -1.6441,-1.18999 -1.5874,-1.19101 -1.5874,-1.30399 -1.5307,-1.24701 -1.474,-1.35999 -1.4741,-1.361 -1.474001,-1.417 -1.3606,-1.47401 -1.3606,-1.474 -1.3607,-1.47407 -1.3039,-1.531 -1.2473,-1.588 -1.2472,-1.587 -1.1905,-1.644 -1.1339,-1.644 -1.0772,-1.701 -1.0771,-1.701 -1.0205,-1.757 -1.0205,-1.758 -0.9071,-1.814 -0.9071,-1.814 -0.8503,-1.814 -0.8504,-1.871 -0.737,-1.928 -0.7371,-1.927 -0.6803,-1.928 -0.6236,-1.927 -0.6236,-1.985 -0.5102,-1.984 -0.5103,-2.041 -0.4535,-2.041 -0.3969,-2.041 -0.3401,-2.097 -0.2835,-2.098 -0.2268,-2.098 -0.1701,-2.097 -0.17,-2.155 -0.0567,-2.1539 -0.0567,-2.1543 0.0567,-2.1543 0.0567,-2.1544 0.17,-2.1543 0.1701,-2.0976 0.2268,-2.0977 0.2835,-2.0976 0.3401,-2.0976 0.3969,-2.041 0.4535,-2.0409 0.5103,-2.041 0.5102,-1.9843 0.6236,-1.9842 0.6236,-1.9843 0.6803,-1.9275 0.7371,-1.9276 0.7937,-1.8708 0.7937,-1.8709 0.8503,-1.8709 0.9071,-1.8141 0.9638,-1.8142 0.9638,-1.7575 1.0772,-1.7575 1.0771,-1.7007 1.0772,-1.7008 1.1338,-1.6441 1.1906,-1.6441 1.2472,-1.5874 1.2473,-1.5874 1.3039,-1.5307 1.3607,-1.5307 1.3606,-1.474 1.4173,-1.4174 1.417301,-1.4173 1.474,-1.3607 1.5308,-1.3606 1.5307,-1.3039 1.5874,-1.2473 1.5874,-1.2472 1.6441,-1.1906 1.6436,-1.1338 1.701,-1.0772 1.701,-1.0771 1.758,-1.0772 1.757,-0.9638 1.813999,-0.9638 1.814,-0.907 1.871,-0.8504 1.871,-0.7937 1.871,-0.7937 1.927,-0.737 1.928,-0.6804 1.984,-0.6236 1.985,-0.6236 1.984,-0.5102 2.041,-0.5103 2.041,-0.4535 2.041,-0.3969 2.097,-0.3401 2.098,-0.2835 2.098,-0.2268 2.097,-0.17 2.155,-0.1701 2.1539998,-0.0567 2.154,-0.0567 0.114,0 63.4389922,0 -1.361,1.3606 -1.304,1.4174 -1.24699,1.474 -1.134,1.5307 -1.07701,1.5874 -0.964,1.6441 -0.90699,1.7008 -0.85001,1.7574 -0.73699,1.8142 -0.62401,1.8709 -0.56699,1.8708 -0.453,1.9276 -0.34001,1.9842 -0.284,1.9843 -0.16999,2.041 -0.057,2.0409 0.057,2.041 0.16999,2.0409 0.284,1.9842 0.34001,1.9843 0.453,1.9276 0.56699,1.8708 0.62401,1.8142 0.73699,1.8142 0.85001,1.7574 0.90699,1.7008 0.964,1.6441 1.07701,1.5874 1.134,1.5874 1.24699,1.474 1.304,1.3607 1.361,1.3606 -63.5529922,0 0,0 -1.474,0.0567 -1.4169998,0.1134 -1.361,0.17 -1.417,0.2268 -1.361,0.3402 -1.304,0.3401 -1.304,0.4536 -1.247,0.5103 -1.247,0.5668 -1.191,0.6237 -1.19,0.6803 -1.134,0.737 -1.077,0.737 -1.077,0.8504 -1.021,0.9071 -0.964,0.9071 -0.963,0.9638 -0.851,1.0204 -0.85,1.0772 -0.737,1.0772 -0.737,1.1338 -0.681,1.1906 -0.623,1.1905 -0.567,1.2473 -0.51,1.2472 -0.454,1.3039 -0.34,1.3607 -0.34,1.3606 -0.227,1.3606 -0.17,1.4174 -0.113,1.4173 -0.057,1.4173 0.057,1.474 0.113,1.4173 0.17,1.3609 0.227,1.417 0.34,1.361 0.34,1.304 0.454,1.304 0.51,1.247 0.567,1.247 0.623,1.191 0.681,1.19 0.737,1.134 0.737,1.077 0.85,1.077 0.851,1.021 0.963,0.964 0.964,0.963 1.021,0.851 1.077,0.85 1.077,0.737 1.134,0.737 1.19,0.681 1.191,0.623 1.247,0.567 1.247,0.51 1.304,0.454 1.304,0.34 1.361,0.34 1.417,0.227 1.361,0.17 1.4169998,0.113 1.474,0.057 0,0 122.0599882,0 0.28401,0 2.15399,0 2.15401,0.113 2.154,0.11399 2.098,0.17 2.098,0.283 2.097,0.284 2.09799,0.34 2.04101,0.397 2.041,0.453 2.041,0.454 1.98399,0.567 1.98401,0.567 1.98499,0.68 1.927,0.68 1.928,0.737 1.87101,0.737 1.87,0.851 1.871,0.85 1.81499,0.907 1.75701,0.964 1.814,0.964 1.758,1.02 1.7,1.078 1.70099,1.133 1.64401,1.134 1.644,1.191 1.58799,1.247 1.58701,1.247 1.531,1.304 1.474,1.361 1.474,1.361 1.474,1.417 1.417,1.417 1.361,1.474 1.304,1.531 1.304,1.531 1.304,1.587 1.18999,1.587 1.19101,1.644 1.19,1.64501 1.07799,1.69999 1.07701,1.70101 1.02,1.75799 1.021,1.757 0.96299,1.814 0.908,1.814 0.85001,1.871 0.794,1.871 0.79299,1.871 0.73701,1.928 0.68099,1.92701 0.62301,1.984 0.624,1.985 0.51,1.984 0.51,2.04099 0.454,2.041 0.397,2.04101 0.33999,2.09699 0.283,2.098 0.227,2.09801 0.17001,2.09699 0.17,2.155 0.0569,2.154 0.0571,2.154 -0.0571,2.155 -0.0569,2.15399 -0.17,2.15402 -0.17001,2.15498 -0.227,2.09701 -0.283,2.098 -0.33999,2.041 -0.397,2.09699 -0.454,2.04101 -0.51,1.985 -0.51,2.04101 -0.624,1.984 -0.62301,1.92699 -0.68099,1.928 -0.73701,1.92801 -0.79299,1.92699 -0.794,1.87101 -0.85001,1.814 -0.908,1.87099 -0.96299,1.75701 -1.021,1.758 -1.02,1.75699 -1.07701,1.758 -1.07799,1.644 -1.19,1.70101 -1.19101,1.58699 -1.18999,1.644 -1.304,1.531 -1.304,1.53101 -1.304,1.52999 -1.361,1.474 -1.417,1.474 -1.474,1.361 -1.474,1.41701 -1.474,1.30399 -1.531,1.304 -1.58701,1.248 -1.58799,1.247 -1.644,1.19001 -1.64401,1.13399 -1.70099,1.134 -1.7,1.077 -1.758,1.02096 -1.814,1.02 -1.75701,0.907 -1.81499,0.907 -1.871,0.851 -1.87,0.8501 -1.87101,0.794 -1.928,0.68 -1.927,0.6799 -1.98499,0.681 -1.98401,0.567 -1.98399,0.567 -2.041,0.453 -2.041,0.454 -2.04101,0.397 -2.09799,0.34 -2.097,0.283 -2.098,0.284 -2.098,0.17 -2.154,0.1131 -2.15401,0.114 -2.15399,0 -0.171,0 -178.128697,0 0,0 -1.474,0 -1.417401,-0.114 -1.4173,-0.17 -1.3606,-0.283 -1.3606,-0.284 -1.304,-0.397 -1.3039,-0.453 -1.304,-0.51 -1.1905,-0.511 -1.2472,-0.623 -1.1339,-0.681 -1.1339,-0.737 -1.1338,-0.793 -1.0205,-0.851 -1.0205,-0.85 -0.9637,-0.907 -0.9638,-1.021 -0.8504,-0.964 -0.8504,-1.077 -0.7937,-1.077 -0.6803,-1.18999 -0.6803,-1.13401 -0.6237,-1.248 -0.5669,-1.19001 -0.5102,-1.30399 -0.4536,-1.304 -0.3401,-1.304 -0.3402,-1.36004 -0.2268,-1.36101 -0.17,-1.417 -0.1134,-1.418 -0.0567,-1.474 0.0567,-1.417 0.1134,-1.417 0.17,-1.41799 0.2268,-1.36001 0.3402,-1.361 0.3401,-1.304 0.4536,-1.304 0.5102,-1.247 0.5669,-1.247 0.567,-1.19099 0.6803,-1.19101 0.737,-1.13301 0.7937,-1.07798 0.7937,-1.077 0.9071,-1.02001 0.9071,-0.96399 0.9637,-0.907 1.0205,-0.907 1.0205,-0.79401 1.1338,-0.79401 1.1339,-0.73698 1.1339,-0.68001 1.1905,-0.62299 1.2473,-0.567 1.2472,-0.511 1.3039,-0.39601 1.304,-0.397 1.3606,-0.34 1.3606,-0.227 1.4174,-0.17 1.417301,-0.11407 1.4173,-0.0559 178.469797,0 0,0 1.417,-0.057 1.417,-0.11306 1.417,-0.171 1.36101,-0.226 1.36099,-0.34 1.304,-0.341 1.30401,-0.453 1.30398,-0.51 1.24701,-0.567 1.18999,-0.624 1.19101,-0.67999 1.134,-0.737 1.077,-0.737 1.07701,-0.851 1.021,-0.85001 0.96299,-0.96399 0.907,-0.96401 0.908,-1.01999 0.793,-1.077 0.79401,-1.077 0.73699,-1.134 0.67999,-1.191 0.62401,-1.19001 0.51,-1.248 0.51,-1.247 0.454,-1.304 0.397,-1.304 0.283,-1.36 0.284,-1.41799 0.17,-1.36001 0.11299,-1.418 0,-1.474 0,-1.417 -0.11299,-1.417 -0.17,-1.418 -0.284,-1.36 -0.283,-1.361 -0.397,-1.304 -0.454,-1.304 -0.51,-1.30399 -0.51,-1.247 -0.62401,-1.19101 -0.67999,-1.18999 -0.73699,-1.13401 -0.79401,-1.077 -0.793,-1.077 -0.908,-1.02099 -0.907,-0.96401 -0.96299,-0.907 -1.021,-0.907 -1.07701,-0.793 -1.077,-0.794 -1.134,-0.737 -1.19101,-0.67999 -1.18999,-0.62401 -1.24701,-0.51 -1.30398,-0.50999 -1.30401,-0.45401 -1.304,-0.39699 -1.36099,-0.28301 -1.36101,-0.28399 -1.417,-0.17 -1.417,-0.11305 -1.417,0 0,0 -122.6269982,0 z m 0,0 0,0 z m 295.3699982,-52.668 -2.49501,1.928 -2.60799,2.04 -2.551,2.098 -2.608,2.268 -1.927,-0.851 -1.928,-0.85 -1.871,-0.794 -1.814,-0.793 -1.814,-0.681 -1.757,-0.68 -1.75801,-0.624 -1.70099,-0.623 -1.587,-0.567 -1.58801,-0.51 -1.58699,-0.511 -1.474,-0.453 -1.417,-0.397 -1.361,-0.397 -1.304,-0.34 -1.247,-0.34 1.247,-1.701 1.247,-1.587 1.361,-1.531 1.361,-1.474 1.47401,-1.417 1.52999,-1.304 1.588,-1.304 1.64399,-1.191 3.345,1.361 3.23101,1.36 3.17499,1.474 3.11801,1.531 3.118,1.644 3.00499,1.644 3.00501,1.758 2.948,1.814 z m 0,0 0,0 z m -11.395,9.354 -1.75799,1.644 -1.75701,1.644 -1.758,1.701 -1.757,1.758 -3.17501,-1.418 -3.06199,-1.36 -3.004,-1.247 -2.948,-1.078 -2.778,-1.077 -2.665,-0.907 -2.551,-0.85 -1.191,-0.34 -1.19001,-0.397 0.907,-2.098 1.02,-2.098 1.19101,-1.984 1.19,-1.927 3.345,1.02 3.232,1.077 3.23099,1.134 3.17501,1.247 3.11799,1.248 3.11801,1.36 3.062,1.474 3.005,1.474 z m 0,0 0,0 z m -8.051,7.881 -2.608,2.778 -2.551,2.948 -1.19,1.417 -1.19101,1.361 -2.324,-0.794 -2.26799,-0.737 -2.21101,-0.68 -2.21099,-0.624 -2.15501,-0.624 -2.09699,-0.567 -1.984,-0.51 -1.985,-0.453 0.16999,-1.644 0.22702,-1.645 0.28398,-1.644 0.34001,-1.587 0.397,-1.588 0.453,-1.53 0.51,-1.588 0.567,-1.474 2.835,0.964 2.778,1.021 2.77799,1.02 2.72101,1.134 2.721,1.19 2.665,1.248 2.66499,1.247 2.66401,1.361 z m 0,0 0,0 z m -8.504,9.751 -1.814,2.268 -1.757,2.26701 -1.64499,2.26799 -1.58701,2.154 -1.47401,2.098 -1.36099,2.041 -1.304,1.92699 -1.19001,1.87101 -0.96399,-2.211 -0.907,-2.26699 -0.68001,-2.325 -0.62399,-2.43801 -0.51,-2.43699 -0.34,-2.49501 -0.17,-2.494 -0.11399,-2.608 0.0571,-1.474 0.0569,-1.531 4.138,1.191 4.139,1.247 4.025,1.417 4.025,1.531 z m 0,0 0,0 z m 51.477,-41.103 2.325,1.474 2.21099,1.645 2.09701,1.757 1.98501,1.871 -0.96401,0.51 -1.021,0.51 -1.07701,0.567 -1.13399,0.624 -1.19001,0.68 -1.24699,0.737 -1.248,0.737 -1.304,0.794 -1.30401,0.794 -1.417,0.85 -1.417,0.907 -1.417,0.964 -1.47399,1.02 -1.47501,1.021 -1.53,1.077 -1.53099,1.134 -2.32401,-1.588 -2.26799,-1.474 -2.268,-1.417 -2.211,-1.36 2.49499,-1.871 2.49401,-1.871 2.608,-1.814 2.60799,-1.758 2.66501,-1.701 2.72099,-1.644 2.77801,-1.644 2.834,-1.531 z m 0,0 0,0 z m -13.663,20.807 -2.267,1.701 -2.211,1.814 -2.325,1.871 -2.267,1.984 -2.38201,-1.304 -2.38099,-1.247 -2.324,-1.248 -2.268,-1.133 2.381,-2.155 2.381,-2.154 2.438,-2.098 2.495,-2.041 2.211,1.418 2.211,1.53 2.154,1.474 2.154,1.588 z m 0,0 0,0 z m -10.54501,8.674 -1.69999,1.53 -1.701,1.645 -1.701,1.644 -1.70101,1.7 -2.26699,-1.303 -2.268,-1.248 -2.211,-1.134 -2.211,-1.133 3.345,-3.459 3.401,-3.401 4.536,2.494 4.47799,2.665 z m 0,0 0,0 z m -8.16299,7.88 -2.665,2.891 -2.608,3.005 -1.07701,1.30401 -2.38099,-1.07701 -2.438,-1.021 -2.381,-0.907 -2.381,-0.907 1.814,-2.154 1.814,-2.041 3.62901,-4.082 4.365,2.438 4.30899,2.551 z m 0,0 0,0 z m -7.597,8.731 -1.361,1.644 -1.304,1.701 -1.247,1.58701 -1.24701,1.644 -1.19099,1.588 -1.13401,1.52999 -1.07699,1.531 -1.02,1.47401 -1.021,1.47399 -0.907,1.41701 -0.907,1.36099 -0.84999,1.304 -0.85101,1.30401 -0.737,1.247 -0.68,1.13399 -0.67999,1.134 -0.96401,-1.077 -0.907,-1.078 -0.851,-1.133 -0.85001,-1.13399 -0.79398,-1.19101 -0.79301,-1.247 -0.73701,-1.191 -0.68099,-1.304 3.345,-4.705 3.345,-4.535 3.345,-4.366 3.402,-4.252 4.70499,1.984 2.324,1.021 2.32501,1.134 z m 0,0 0,0 z m 48.86899,-39.062 1.021,1.078 0.96301,1.02 0.907,1.134 0.908,1.134 0.85,1.19 0.794,1.191 0.793,1.19 0.737,1.248 -1.927,0.963 -2.09801,1.021 -2.21099,1.19 -2.324,1.248 -2.381,1.36 -2.495,1.418 -2.551,1.587 -2.66501,1.701 -2.09699,-1.701 -2.041,-1.587 -2.098,-1.531 -2.09701,-1.531 2.38101,-1.814 2.381,-1.757 2.438,-1.758 2.437,-1.701 2.55199,-1.644 2.551,-1.587 2.60801,-1.531 2.66399,-1.531 z m 0,0 0,0 z m -13.54899,20.863 -2.09801,1.474 -2.15399,1.531 -2.155,1.588 -2.154,1.644 -1.984,-1.361 -2.041,-1.247 -1.98501,-1.248 -1.98399,-1.19 2.098,-1.928 2.154,-1.927 2.154,-1.814 2.155,-1.815 4.025,3.062 3.969,3.231 z m 0,0 0,0 z m -10.31901,7.597 -1.75699,1.474 -1.814,1.474 -1.758,1.588 -1.757,1.587 -3.57201,-2.381 -1.81398,-1.077 -1.75701,-1.077 3.288,-3.402 3.288,-3.231 3.855,2.494 3.79799,2.551 z m 0,0 0,0 z m -8.73,7.597 -2.55099,2.49501 -2.552,2.551 -0.79301,0.84999 -3.51499,-1.814 -3.515,-1.70099 3.061,-3.51501 3.005,-3.401 3.458,2.211 3.40199,2.324 z m 0,0 0,0 z m -7.42699,7.484 -1.644,1.814 -1.58801,1.757 -1.53,1.75801 -1.47399,1.69999 -1.418,1.701 -1.304,1.64401 -1.303,1.58799 -1.19101,1.587 -1.19099,1.53101 -1.077,1.47399 -1.077,1.41701 -0.964,1.36099 -0.907,1.30401 -0.85,1.24699 -0.794,1.191 -0.737,1.077 -1.304,-1.021 -1.247,-1.134 -1.24701,-1.133 -1.19099,-1.191 2.155,-3.118 2.09699,-3.06201 2.15401,-3.00399 2.155,-2.892 2.154,-2.891 2.15399,-2.77799 2.155,-2.77801 2.21101,-2.66399 3.401,1.75699 3.402,1.758 z m 0,0 0,0 z m 47.282,-33.903 1.134,2.154 1.02,2.268 0.85099,2.268 0.79301,2.381 -1.644,0.794 -1.70101,0.907 -1.814,0.907 -1.75699,0.964 -1.871,1.077 -1.928,1.077 -1.927,1.134 -1.928,1.247 -1.701,-1.587 -1.757,-1.588 -1.814,-1.587 -1.87101,-1.588 2.09801,-1.474 2.211,-1.417 2.154,-1.417 2.26799,-1.361 2.21101,-1.36 2.324,-1.304 2.26799,-1.248 2.38101,-1.247 z m 0,0 0,0 z m -12.699,18.369 -1.985,1.304 -1.984,1.36 -1.984,1.361 -1.984,1.474 -2.26801,-1.758 -2.325,-1.757 -2.66399,-1.871 4.025,-3.231 4.13901,-3.119 3.51499,3.062 3.515,3.175 z m 0,0 0,0 z m -9.752,6.86 -1.814,1.417 -1.814,1.41701 -1.871,1.53099 -1.814,1.53101 -2.041,-1.58801 -2.15401,-1.587 -1.24699,-0.907 -1.30401,-0.907 3.458,-3.175 3.458,-3.062 3.57201,2.608 3.571,2.722 z m 0,0 0,0 z m -8.95699,7.37 -2.32401,2.154 -2.382,2.211 -0.566,0.567 -2.325,-1.417 -2.494,-1.418 -2.268,-1.304 2.835,-2.891 2.834,-2.835 3.345,2.438 3.34501,2.495 z m 0,0 0,0 z m -6.86001,6.519 -1.757,1.75799 -1.64401,1.75701 -1.58799,1.701 -1.531,1.701 -1.47401,1.701 -1.417,1.58701 -1.36099,1.58699 -1.247,1.588 -1.24701,1.474 -1.13399,1.47401 -1.077,1.41699 -1.021,1.30401 -0.963,1.30399 -0.907,1.24701 -0.79401,1.13399 -0.79398,1.134 -1.81401,-0.907 -1.814,-1.02099 -1.75801,-1.077 -1.644,-1.13401 2.49501,-3.231 2.49399,-3.175 2.49501,-3.11799 2.49401,-3.00501 2.49499,-2.94799 2.494,-2.83401 2.495,-2.77799 2.494,-2.72201 3.51499,1.985 3.51501,2.097 z m 0,0 0,0 z m 42.29299,-29.367 0.397,1.474 0.34001,1.531 0.28299,1.474 0.22701,1.588 0.16999,1.53 0.17001,1.531 0.0571,1.587 0.0569,1.588 -0.0569,1.417 -0.0571,1.417 -0.113,1.418 -0.113,1.36 -0.45401,2.72201 -0.56699,2.66399 -1.417,-1.644 -1.531,-1.75699 -1.644,-1.81501 -1.701,-1.814 -1.87101,-1.927 -1.86999,-1.985 -2.041,-1.984 -2.098,-2.041 3.345,-2.211 3.458,-2.154 3.45799,-2.041 3.572,-1.928 z m 0,0 0,0 z m -0.22699,25.285 -0.68001,2.155 -0.79399,2.097 -0.907,2.041 -0.96401,1.985 -0.73699,-0.85099 -0.85,-0.907 -0.907,-0.96401 -0.964,-1.01999 -1.02,-1.02102 -1.078,-1.07699 -1.19,-1.13399 -1.191,-1.13401 -1.247,-1.18999 -1.36001,-1.24701 -1.36099,-1.24801 -1.47401,-1.24699 -1.47399,-1.30399 -1.58801,-1.30401 -1.58699,-1.36 -1.644,-1.304 3.74199,-2.892 1.87101,-1.417 1.927,-1.361 3.855,3.742 3.91199,3.855 3.85501,3.969 3.855,4.138 z m 0,0 0,0 z m -3.912,9.298 -1.417,2.32401 -1.474,2.15498 -1.644,2.09701 -1.757,1.985 -0.73701,-0.85099 -0.79399,-0.907 -0.907,-0.96401 -0.964,-1.077 -1.077,-1.134 -1.191,-1.19 -1.247,-1.24699 -1.304,-1.30401 -1.417,-1.36099 -1.47401,-1.36101 -1.58799,-1.417 -1.64401,-1.474 -1.70099,-1.53099 -1.814,-1.53001 -1.87101,-1.53099 -1.927,-1.58701 3.51501,-3.062 3.57099,-3.005 2.60801,2.04101 2.552,2.09799 2.607,2.211 2.552,2.21101 2.60701,2.26799 2.66499,2.324 2.60799,2.381 2.66401,2.438 z m 0,0 0,0 z m -6.916,9.29801 -1.814,1.75699 -1.87101,1.644 -0.794,-0.737 -0.84999,-0.793 -0.964,-0.90799 -1.13401,-0.907 -1.134,-1.02001 -1.304,-1.077 -1.35999,-1.134 -1.47399,-1.13399 -1.58801,-1.247 -1.644,-1.248 -1.75701,-1.303 -1.87099,-1.30401 -1.928,-1.36099 -1.98401,-1.36101 -2.09799,-1.35999 -2.154,-1.418 2.495,-2.43701 2.55099,-2.325 2.77801,2.21101 2.834,2.26799 2.778,2.381 2.835,2.438 2.835,2.49401 2.834,2.55199 2.892,2.607 2.891,2.72201 z m 0,0 0,0 z m -4.422,3.96799 -1.417,1.077 -1.531,1.078 -1.531,0.96301 -1.58701,0.907 -1.64399,0.851 -1.644,0.79298 -1.701,0.73701 -1.70101,0.68099 -1.81399,0.56701 -1.75801,0.51001 -1.87099,0.45299 -1.814,0.341 -1.927,0.28301 -1.871,0.22699 -1.928,0.11305 -1.984,0.057 -2.324,-0.057 -2.381,-0.22701 -2.26801,-0.28299 -2.26799,-0.397 -2.21101,-0.51 -2.21098,-0.68001 -2.09801,-0.737 -2.097,-0.851 2.608,-3.17499 2.608,-3.061 2.551,-3.00501 2.60799,-2.94799 2.551,-2.83401 2.60801,-2.77799 2.55099,-2.722 2.60801,-2.664 3.004,1.92699 3.062,1.98501 3.11799,2.09699 3.06101,2.09801 3.11799,2.21099 3.175,2.26801 3.17501,2.324 3.175,2.381 z"
       id="path4910"
       inkscape:connector-curvature="0" />
  </g>
</svg>
